<?xml version="1.0" standalone="no"?>
<!DOCTYPE svg PUBLIC "-//W3C//DTD SVG 1.1//EN" "http://www.w3.org/Graphics/SVG/1.1/DTD/svg11.dtd" >
<!--
2013-9-30: Created.
-->
<svg>
<metadata>
Created by iconfont
</metadata>
<defs>

<font id="iconfont" horiz-adv-x="1024" >
  <font-face
    font-family="iconfont"
    font-weight="500"
    font-stretch="normal"
    units-per-em="1024"
    ascent="896"
    descent="-128"
  />
    <missing-glyph />
    
    <glyph glyph-name="x" unicode="x" horiz-adv-x="1001"
d="M281 543q-27 -1 -53 -1h-83q-18 0 -36.5 -6t-32.5 -18.5t-23 -32t-9 -45.5v-76h912v41q0 16 -0.5 30t-0.5 18q0 13 -5 29t-17 29.5t-31.5 22.5t-49.5 9h-133v-97h-438v97zM955 310v-52q0 -23 0.5 -52t0.5 -58t-10.5 -47.5t-26 -30t-33 -16t-31.5 -4.5q-14 -1 -29.5 -0.5
t-29.5 0.5h-32l-45 128h-439l-44 -128h-29h-34q-20 0 -45 1q-25 0 -41 9.5t-25.5 23t-13.5 29.5t-4 30v167h911zM163 247q-12 0 -21 -8.5t-9 -21.5t9 -21.5t21 -8.5q13 0 22 8.5t9 21.5t-9 21.5t-22 8.5zM316 123q-8 -26 -14 -48q-5 -19 -10.5 -37t-7.5 -25t-3 -15t1 -14.5
t9.5 -10.5t21.5 -4h37h67h81h80h64h36q23 0 34 12t2 38q-5 13 -9.5 30.5t-9.5 34.5q-5 19 -11 39h-368zM336 498v228q0 11 2.5 23t10 21.5t20.5 15.5t34 6h188q31 0 51.5 -14.5t20.5 -52.5v-227h-327z" />
    

    
    <glyph glyph-name="equipment" unicode="&#58883;" d="M428.8 832c134.4 0 245.333333-110.933333 245.333333-245.333333S563.2 341.33333300000004 428.8 341.33333300000004 183.466667 452.266667 183.466667 586.666667 294.4 832 428.8 832m0 64c-170.666667 0-309.333333-138.666667-309.333333-309.333333S258.133333 277.33333300000004 428.8 277.33333300000004s309.333333 138.666667 309.333333 309.333334S599.466667 896 428.8 896zM183.466667 610.133333C196.266667 733.866667 300.8 832 428.8 832S661.333333 733.866667 672 610.133333h25.6c12.8 0 27.733333-2.133333 40.533333-6.4C727.466667 765.866667 593.066667 896 428.8 896 262.4 896 128 765.866667 119.466667 601.6c14.933333 6.4 29.866667 8.533333 46.933333 8.533333h17.066667zM669.866667 546.133333c-19.2-117.333333-119.466667-204.8-241.066667-204.8S206.933333 430.933333 187.733333 546.133333h-21.333333c-17.066667 0-29.866667-6.4-42.666667-17.066666C151.466667 386.133333 277.333333 277.33333300000004 428.8 277.33333300000004c153.6 0 279.466667 110.933333 305.066667 258.133334-10.666667 6.4-23.466667 10.666667-36.266667 10.666666h-27.733333zM738.133333 603.733333v-17.066666c0-17.066667-2.133333-34.133333-4.266666-51.2 17.066667-10.666667 27.733333-29.866667 27.733333-53.333334V0c0-36.266667-27.733333-64-64-64H166.4c-36.266667 0-64 27.733333-64 64V482.133333c0 19.2 8.533333 36.266667 21.333333 46.933334-4.266667 19.2-6.4 36.266667-6.4 55.466666v14.933334c-46.933333-19.2-81.066667-66.133333-81.066666-119.466667V0c0-70.4 57.6-128 128-128h531.2c70.4 0 128 57.6 128 128V482.133333c2.133333 57.6-36.266667 104.533333-85.333334 121.6zM780.8 273.06666700000005h147.2v-64h-147.2zM985.6 349.866667v-219.733334c0-17.066667-14.933333-32-32-32s-32 14.933333-32 32V349.866667c0 17.066667 14.933333 32 32 32s32-12.8 32-32z"  horiz-adv-x="1024" />

    
    <glyph glyph-name="alarm" unicode="&#58884;" d="M505.6 704C315.733333 704 160 548.266667 160 358.4V0h704V345.6C864 544 704 704 505.6 704z m294.4-640h-384V352c0 17.066667-14.933333 32-32 32s-32-14.933333-32-32V64h-128V358.4c0 155.733333 125.866667 281.6 281.6 281.6 162.133333 0 294.4-132.266667 294.4-294.4V64zM992-96c0-17.066667-14.933333-32-32-32H64c-17.066667 0-32 14.933333-32 32S46.933333-64 64-64h896c17.066667 0 32-14.933333 32-32zM512 768c-17.066667 0-32 14.933333-32 32v64c0 17.066667 14.933333 32 32 32s32-14.933333 32-32v-64c0-17.066667-14.933333-32-32-32zM192 676.266667L155.733333 723.2c-10.666667 12.8-8.533333 34.133333 4.266667 44.8 12.8 10.666667 34.133333 8.533333 44.8-4.266667l36.266667-46.933333c10.666667-12.8 8.533333-34.133333-4.266667-44.8-12.8-10.666667-34.133333-8.533333-44.8 4.266667zM780.8 672c-12.8 10.666667-14.933333 32-2.133333 44.8l40.533333 46.933333c10.666667 12.8 32 14.933333 44.8 4.266667 12.8-10.666667 14.933333-32 4.266667-44.8l-40.533334-46.933333c-12.8-14.933333-32-14.933333-46.933333-4.266667z"  horiz-adv-x="1024" />

    
    <glyph glyph-name="data" unicode="&#58885;" d="M586.666667 827.733333c189.866667-27.733333 341.333333-179.2 369.066666-369.066666H586.666667V827.733333m-64 68.266667v-501.333333H1024C1024 672 800 896 522.666667 896zM480-64C249.6-64 64 121.60000000000002 64 352S249.6 768 480 768V832C215.466667 832 0 616.5333330000001 0 352S215.466667-128 480-128 960 87.46666700000003 960 352h-64C896 121.60000000000002 710.4-64 480-64z"  horiz-adv-x="1024" />

    
    <glyph glyph-name="fan" unicode="&#58886;" d="M512 832c247.466667 0 448-200.533333 448-448s-200.533333-448-448-448S64 136.53333299999997 64 384 264.533333 832 512 832m0 64C228.266667 896 0 667.733333 0 384s228.266667-512 512-512 512 228.266667 512 512S795.733333 896 512 896zM669.866667 765.866667c-123.733333 0-224-100.266667-224-224 0-61.866667 25.6-117.333333 66.133333-157.866667L827.733333 699.733333c-40.533333 40.533333-96 66.133333-157.866666 66.133334zM893.866667 226.133333c0 123.733333-100.266667 224-224 224-61.866667 0-117.333333-25.6-157.866667-66.133333l315.733333-315.733333c40.533333 40.533333 66.133333 96 66.133334 157.866666zM354.133333 2.1333329999999933c123.733333 0 224 100.266667 224 224 0 61.866667-25.6 117.333333-66.133333 157.866667L196.266667 68.26666699999998c40.533333-40.533333 96-66.133333 157.866666-66.133334zM130.133333 541.866667c0-123.733333 100.266667-224 224-224 61.866667 0 117.333333 25.6 157.866667 66.133333L196.266667 699.733333c-40.533333-40.533333-66.133333-96-66.133334-157.866666z"  horiz-adv-x="1024" />

    
    <glyph glyph-name="firm" unicode="&#58887;" d="M565.333333 832v-896h-426.666666V832h426.666666m0 64h-426.666666c-36.266667 0-64-27.733333-64-64v-960h554.666666V832c0 36.266667-27.733333 64-64 64zM283.733333 731.733333v-42.666666h-42.666666v42.666666h42.666666m21.333334 42.666667h-85.333334c-12.8 0-21.333333-8.533333-21.333333-21.333333v-85.333334c0-12.8 8.533333-21.333333 21.333333-21.333333h85.333334c12.8 0 21.333333 8.533333 21.333333 21.333333v85.333334c0 10.666667-8.533333 21.333333-21.333333 21.333333zM462.933333 731.733333v-42.666666h-42.666666v42.666666h42.666666m21.333334 42.666667h-85.333334c-12.8 0-21.333333-8.533333-21.333333-21.333333v-85.333334c0-12.8 8.533333-21.333333 21.333333-21.333333h85.333334c12.8 0 21.333333 8.533333 21.333333 21.333333v85.333334c0 10.666667-8.533333 21.333333-21.333333 21.333333zM283.733333 526.933333v-42.666666h-42.666666v42.666666h42.666666m21.333334 42.666667h-85.333334c-12.8 0-21.333333-8.533333-21.333333-21.333333v-85.333334c0-12.8 8.533333-21.333333 21.333333-21.333333h85.333334c12.8 0 21.333333 8.533333 21.333333 21.333333v85.333334c0 12.8-8.533333 21.333333-21.333333 21.333333zM462.933333 526.933333v-42.666666h-42.666666v42.666666h42.666666m21.333334 42.666667h-85.333334c-12.8 0-21.333333-8.533333-21.333333-21.333333v-85.333334c0-12.8 8.533333-21.333333 21.333333-21.333333h85.333334c12.8 0 21.333333 8.533333 21.333333 21.333333v85.333334c0 12.8-8.533333 21.333333-21.333333 21.333333zM283.733333 320v-42.666667h-42.666666v42.666667h42.666666m21.333334 42.666667h-85.333334c-12.8 0-21.333333-8.533333-21.333333-21.333334v-85.333333c0-12.8 8.533333-21.333333 21.333333-21.333333h85.333334c12.8 0 21.333333 8.533333 21.333333 21.333333v85.333333c0 12.8-8.533333 21.333333-21.333333 21.333334zM462.933333 320v-42.666667h-42.666666v42.666667h42.666666m21.333334 42.666667h-85.333334c-12.8 0-21.333333-8.533333-21.333333-21.333334v-85.333333c0-12.8 8.533333-21.333333 21.333333-21.333333h85.333334c12.8 0 21.333333 8.533333 21.333333 21.333333v85.333333c0 12.8-8.533333 21.333333-21.333333 21.333334zM416 108.79999999999995v-187.733333h-128v187.733333h128m0 42.666667h-128c-23.466667 0-42.666667-19.2-42.666667-42.666667v-187.733333c0-23.466667 19.2-42.666667 42.666667-42.666667h128c23.466667 0 42.666667 19.2 42.666667 42.666667v187.733333c0 23.466667-19.2 42.666667-42.666667 42.666667zM885.333333 576v-640h-256V576h256m0 64h-320v-768h384V576c0 36.266667-27.733333 64-64 64zM778.666667 441.6v-42.666667h-42.666667v42.666667h42.666667m21.333333 42.666667h-85.333333c-12.8 0-21.333333-8.533333-21.333334-21.333334v-85.333333c0-12.8 8.533333-21.333333 21.333334-21.333333h85.333333c12.8 0 21.333333 8.533333 21.333333 21.333333v85.333333c0 12.8-8.533333 21.333333-21.333333 21.333334zM778.666667 234.66666699999996v-42.666667h-42.666667v42.666667h42.666667m21.333333 42.666666h-85.333333c-12.8 0-21.333333-8.533333-21.333334-21.333333v-85.333333c0-12.8 8.533333-21.333333 21.333334-21.333334h85.333333c12.8 0 21.333333 8.533333 21.333333 21.333334v85.333333c0 12.8-8.533333 21.333333-21.333333 21.333333z"  horiz-adv-x="1024" />

    
    <glyph glyph-name="curve" unicode="&#58888;" d="M32 810.666667C14.933333 810.666667 0 795.733333 0 778.666667V-42.66666699999996h992c17.066667 0 32 14.933333 32 32s-14.933333 32-32 32H64V778.666667C64 795.733333 49.066667 810.666667 32 810.666667zM232.533333 21.33333300000004h-64V723.2c0 17.066667 14.933333 32 32 32s32-14.933333 32-32V21.33333300000004zM369.066667 21.33333300000004h-64V723.2c0 17.066667 14.933333 32 32 32s32-14.933333 32-32V21.33333300000004zM505.6 21.33333300000004h-64V723.2c0 17.066667 14.933333 32 32 32s32-14.933333 32-32V21.33333300000004zM642.133333 21.33333300000004h-64V723.2c0 17.066667 14.933333 32 32 32s32-14.933333 32-32V21.33333300000004zM778.666667 21.33333300000004h-64V723.2c0 17.066667 14.933333 32 32 32s32-14.933333 32-32V21.33333300000004zM915.2 21.33333300000004h-64V723.2c0 17.066667 14.933333 32 32 32s32-14.933333 32-32V21.33333300000004zM678.4 238.93333299999995c-76.8 0-149.333333 66.133333-219.733333 132.266667-59.733333 55.466667-123.733333 113.066667-174.933334 113.066667-46.933333 0-104.533333-59.733333-134.4-96-8.533333-8.533333-21.333333-10.666667-29.866666-4.266667-10.666667 6.4-12.8 21.333333-4.266667 29.866667 29.866667 36.266667 98.133333 110.933333 166.4 110.933333s134.4-59.733333 204.8-123.733333c64-59.733333 132.266667-121.6 189.866667-121.6 100.266667 0 226.133333 108.8 268.8 149.333333 8.533333 8.533333 21.333333 8.533333 29.866666 0 8.533333-8.533333 8.533333-23.466667 0-29.866667-46.933333-42.666667-181.333333-160-296.533333-160z"  horiz-adv-x="1024" />

    
    <glyph glyph-name="report" unicode="&#58889;" d="M960 654.933333v-554.666666H64v554.666666h896m0 64H64c-36.266667 0-64-27.733333-64-64v-554.666666c0-36.266667 27.733333-64 64-64h896c36.266667 0 64 27.733333 64 64v554.666666c0 36.266667-27.733333 64-64 64zM194.133333 401.066667c-6.4 10.666667-2.133333 23.466667 6.4 29.866666l236.8 147.2c10.666667 6.4 25.6 6.4 36.266667-2.133333l128-100.266667c12.8-8.533333 27.733333-8.533333 40.533333 2.133334l155.733334 138.666666c8.533333 8.533333 21.333333 6.4 29.866666-2.133333 8.533333-8.533333 6.4-21.333333-2.133333-29.866667l-183.466667-162.133333c-10.666667-10.666667-27.733333-10.666667-40.533333-2.133333L469.333333 524.8c-10.666667 8.533333-25.6 8.533333-36.266666 2.133333l-211.2-132.266666c-8.533333-6.4-21.333333-4.266667-27.733334 6.4zM294.4 151.46666700000003h-64v138.666666c0 17.066667 14.933333 32 32 32s32-14.933333 32-32v-138.666666zM465.066667 151.46666700000003h-64V384c0 17.066667 14.933333 32 32 32s32-14.933333 32-32v-232.533333zM622.933333 151.46666700000003h-64v138.666666c0 17.066667 14.933333 32 32 32s32-14.933333 32-32v-138.666666zM780.8 151.46666700000003h-64V384c0 17.066667 14.933333 32 32 32s32-14.933333 32-32v-232.533333z"  horiz-adv-x="1024" />

    
    <glyph glyph-name="log" unicode="&#58890;" d="M465.066667 441.6h-42.666667c-6.4 0-10.666667 4.266667-10.666667 10.666667v42.666666c0 6.4 4.266667 10.666667 10.666667 10.666667h42.666667c6.4 0 10.666667-4.266667 10.666666-10.666667v-42.666666c0-6.4-4.266667-10.666667-10.666666-10.666667zM601.6 441.6h-42.666667c-6.4 0-10.666667 4.266667-10.666666 10.666667v42.666666c0 6.4 4.266667 10.666667 10.666666 10.666667h42.666667c6.4 0 10.666667-4.266667 10.666667-10.666667v-42.666666c0-6.4-6.4-10.666667-10.666667-10.666667zM736 441.6h-42.666667c-6.4 0-10.666667 4.266667-10.666666 10.666667v42.666666c0 6.4 4.266667 10.666667 10.666666 10.666667h42.666667c6.4 0 10.666667-4.266667 10.666667-10.666667v-42.666666c0-6.4-4.266667-10.666667-10.666667-10.666667zM870.4 441.6h-42.666667c-6.4 0-10.666667 4.266667-10.666666 10.666667v42.666666c0 6.4 4.266667 10.666667 10.666666 10.666667h42.666667c6.4 0 10.666667-4.266667 10.666667-10.666667v-42.666666c0-6.4-4.266667-10.666667-10.666667-10.666667zM465.066667 307.20000000000005h-42.666667c-6.4 0-10.666667 4.266667-10.666667 10.666667v42.666666c0 6.4 4.266667 10.666667 10.666667 10.666667h42.666667c6.4 0 10.666667-4.266667 10.666666-10.666667v-42.666666c0-6.4-4.266667-10.666667-10.666666-10.666667zM601.6 307.20000000000005h-42.666667c-6.4 0-10.666667 4.266667-10.666666 10.666667v42.666666c0 6.4 4.266667 10.666667 10.666666 10.666667h42.666667c6.4 0 10.666667-4.266667 10.666667-10.666667v-42.666666c0-6.4-6.4-10.666667-10.666667-10.666667zM736 307.20000000000005h-42.666667c-6.4 0-10.666667 4.266667-10.666666 10.666667v42.666666c0 6.4 4.266667 10.666667 10.666666 10.666667h42.666667c6.4 0 10.666667-4.266667 10.666667-10.666667v-42.666666c0-6.4-4.266667-10.666667-10.666667-10.666667zM465.066667 170.66666699999996h-42.666667c-6.4 0-10.666667 4.266667-10.666667 10.666666v42.666667c0 6.4 4.266667 10.666667 10.666667 10.666667h42.666667c6.4 0 10.666667-4.266667 10.666666-10.666667v-42.666667c0-4.266667-4.266667-10.666667-10.666666-10.666666zM601.6 170.66666699999996h-42.666667c-6.4 0-10.666667 4.266667-10.666666 10.666666v42.666667c0 6.4 4.266667 10.666667 10.666666 10.666667h42.666667c6.4 0 10.666667-4.266667 10.666667-10.666667v-42.666667c0-4.266667-6.4-10.666667-10.666667-10.666666zM196.266667 170.66666699999996h-42.666667c-6.4 0-10.666667 4.266667-10.666667 10.666666v42.666667c0 6.4 4.266667 10.666667 10.666667 10.666667h42.666667c6.4 0 10.666667-4.266667 10.666666-10.666667v-42.666667c0-4.266667-6.4-10.666667-10.666666-10.666666zM330.666667 170.66666699999996h-42.666667c-6.4 0-10.666667 4.266667-10.666667 10.666666v42.666667c0 6.4 4.266667 10.666667 10.666667 10.666667h42.666667c6.4 0 10.666667-4.266667 10.666666-10.666667v-42.666667c0-4.266667-4.266667-10.666667-10.666666-10.666666zM196.266667 307.20000000000005h-42.666667c-6.4 0-10.666667 4.266667-10.666667 10.666667v42.666666c0 6.4 4.266667 10.666667 10.666667 10.666667h42.666667c6.4 0 10.666667-4.266667 10.666666-10.666667v-42.666666c0-6.4-6.4-10.666667-10.666666-10.666667zM330.666667 307.20000000000005h-42.666667c-6.4 0-10.666667 4.266667-10.666667 10.666667v42.666666c0 6.4 4.266667 10.666667 10.666667 10.666667h42.666667c6.4 0 10.666667-4.266667 10.666666-10.666667v-42.666666c0-6.4-4.266667-10.666667-10.666666-10.666667zM736 170.66666699999996h-42.666667c-6.4 0-10.666667 4.266667-10.666666 10.666666v42.666667c0 6.4 4.266667 10.666667 10.666666 10.666667h42.666667c6.4 0 10.666667-4.266667 10.666667-10.666667v-42.666667c0-4.266667-4.266667-10.666667-10.666667-10.666666zM870.4 307.20000000000005h-42.666667c-6.4 0-10.666667 4.266667-10.666666 10.666667v42.666666c0 6.4 4.266667 10.666667 10.666666 10.666667h42.666667c6.4 0 10.666667-4.266667 10.666667-10.666667v-42.666666c0-6.4-4.266667-10.666667-10.666667-10.666667zM409.6 744.533333c0-17.066667 14.933333-32 32-32h136.533333c17.066667 0 32 14.933333 32 32s-14.933333 32-32 32h-136.533333c-17.066667 0-32-14.933333-32-32zM812.8 744.533333c0-17.066667 14.933333-32 32-32H960v-682.666666H64v682.666666h110.933333c17.066667 0 32 12.8 32 32 0 17.066667-14.933333 32-32 32H0v-810.666666h1024v810.666666h-179.2c-17.066667 0-32-14.933333-32-32zM309.333333 667.733333c-17.066667 0-32 14.933333-32 32v85.333334c0 17.066667 14.933333 32 32 32s32-14.933333 32-32v-85.333334c0-17.066667-14.933333-32-32-32zM714.666667 667.733333c-17.066667 0-32 14.933333-32 32v85.333334c0 17.066667 14.933333 32 32 32s32-14.933333 32-32v-85.333334c0-17.066667-14.933333-32-32-32z"  horiz-adv-x="1024" />

    
    <glyph glyph-name="user" unicode="&#58891;" d="M512 832c119.466667 0 217.6-98.133333 217.6-217.6S631.466667 396.8 512 396.8s-217.6 98.133333-217.6 217.6S392.533333 832 512 832m0 64c-155.733333 0-281.6-125.866667-281.6-281.6S356.266667 332.79999999999995 512 332.79999999999995s281.6 125.866667 281.6 281.6S667.733333 896 512 896zM512 320c226.133333 0 411.733333-166.4 443.733333-384H68.266667C100.266667 153.60000000000002 285.866667 320 512 320m0 64C228.266667 384 0 155.73333300000002 0-128h1024c0 283.733333-228.266667 512-512 512z"  horiz-adv-x="1024" />

    
    <glyph glyph-name="newxingn" unicode="&#58892;" d="M512 599.4666669999999c241.066667 0 437.333333-192 448-430.933334H64c10.666667 238.933333 206.933333 430.933333 448 430.933334m0 64c-283.733333 0-512-228.266667-512-512 0-14.933333 0-32 2.133333-46.933334h1019.733334c2.133333 14.933333 2.133333 29.866667 2.133333 46.933334 0 281.6-228.266667 512-512 512zM507.733333 172.79999999999995m-68.266666 0a68.266667 68.266667 0 1 1 136.533333 0 68.266667 68.266667 0 1 1-136.533333 0ZM537.6 183.46666700000003L507.733333 213.33333300000004l196.266667 196.266667c8.533333 8.533333 21.333333 8.533333 29.866667 0 8.533333-8.533333 8.533333-21.333333 0-29.866667l-196.266667-196.266666z"  horiz-adv-x="1024" />

    
    <glyph glyph-name="cloudy" unicode="&#58893;" d="M824.888889-128H199.111111C89.6-128 0-38.39999999999998 0 71.11111100000005V696.8888890000001C0 806.4 89.6 896 199.111111 896h625.777778c109.511111 0 199.111111-89.6 199.111111-199.111111v-625.777778c0-109.511111-89.6-199.111111-199.111111-199.111111zM695.466667 527.644444c-21.333333 82.488889-95.288889 143.644444-183.466667 143.644445-85.333333 0-159.288889-56.888889-182.044444-135.111111-96.711111-11.377778-173.511111-92.444444-173.511112-190.577778 0-105.244444 85.333333-190.577778 190.577778-190.577778 11.377778 0 21.333333 1.422222 31.288889 2.844445 35.555556-36.977778 85.333333-61.155556 139.377778-61.155556 49.777778 0 96.711111 19.911111 130.844444 52.622222 9.955556-1.422222 19.911111-1.422222 29.866667-1.422222 105.244444 0 190.577778 85.333333 190.577778 190.577778 0 99.555556-76.8 180.622222-173.511111 189.155555zM517.688889 145.06666700000005c-52.622222 0-98.133333 28.444444-122.311111 69.688889-14.222222-7.111111-31.288889-11.377778-46.933334-11.377778v-1.422222h-1.422222c-79.644444 0-142.222222 64-142.222222 142.222222 0 69.688889 49.777778 128 118.044444 140.8v-4.266667c0-99.555556 75.377778-180.622222 173.511112-190.577778 5.688889-1.422222 11.377778-1.422222 18.488888-1.422222 52.622222 0 95.288889 42.666667 95.288889 95.288889 0 5.688889-1.422222 11.377778-1.422222 17.066667 34.133333-27.022222 55.466667-66.844444 55.466667-112.355556-4.266667-79.644444-68.266667-143.644444-146.488889-143.644444zM463.644444 384c0 25.6 21.333333 46.933333 46.933334 46.933333 27.022222 0 46.933333-21.333333 46.933333-46.933333 0-25.6-21.333333-46.933333-46.933333-46.933333-2.844444 0-4.266667 0-8.533334 1.422222h-2.844444c-19.911111 4.266667-35.555556 22.755556-35.555556 45.511111z m220.444445-189.155556c15.644444 27.022222 24.177778 59.733333 24.177778 92.444445 0 100.977778-88.177778 186.311111-189.155556 190.577778H512c-52.622222 0-95.288889-42.666667-95.288889-95.288889 0-4.266667 0-7.111111 1.422222-11.377778-29.866667 27.022222-48.355556 65.422222-48.355555 108.088889 0 79.644444 64 142.222222 142.222222 142.222222s142.222222-64 142.222222-142.222222c0 0 14.222222 1.422222 24.177778 1.422222h4.266667c4.266667 0 9.955556-1.422222 14.222222-1.422222 69.688889-8.533333 125.155556-69.688889 125.155555-140.8-1.422222-76.8-62.577778-140.8-137.955555-143.644445z"  horiz-adv-x="1024" />

    
    <glyph glyph-name="cloud" unicode="&#58894;" d="M824.888889-128H199.111111C89.6-128 0-38.39999999999998 0 71.11111100000005V696.8888890000001C0 806.4 89.6 896 199.111111 896h625.777778c109.511111 0 199.111111-89.6 199.111111-199.111111v-625.777778c0-109.511111-89.6-199.111111-199.111111-199.111111zM374.044444 238.93333299999995c34.133333-36.977778 82.488889-59.733333 136.533334-59.733333 49.777778 0 95.288889 19.911111 128 51.2 9.955556-1.422222 19.911111-1.422222 28.444444-1.422222C769.422222 228.97777799999994 853.333333 312.88888899999995 853.333333 415.288889c0 98.133333-75.377778 177.777778-169.244444 186.311111-19.911111 79.644444-92.444444 140.8-179.2 140.8-85.333333 0-156.444444-56.888889-179.2-133.688889-95.288889-8.533333-170.666667-89.6-170.666667-186.311111 0-102.4 83.911111-186.311111 186.311111-186.311111 12.8 0 24.177778 0 32.711111 2.844444z m132.266667 456.533334c76.8 0 140.8-62.577778 140.8-140.8 0 0 14.222222 1.422222 24.177778 1.422222h4.266667c4.266667 0 9.955556-1.422222 14.222222-1.422222 69.688889-8.533333 122.311111-68.266667 122.311111-139.377778 0-75.377778-59.733333-137.955556-133.688889-140.8 14.222222 27.022222 24.177778 58.311111 24.177778 91.022222 0 99.555556-86.755556 182.044444-186.311111 187.733333h-7.111111c-51.2 0-92.444444-42.666667-92.444445-92.444444 0-4.266667 0-7.111111 1.422222-11.377778-29.866667 25.6-46.933333 62.577778-46.933333 105.244445-5.688889 78.222222 56.888889 140.8 135.111111 140.8z m-11.377778-280.177778c-21.333333 4.266667-35.555556 24.177778-35.555555 45.511111 0 25.6 21.333333 46.933333 46.933333 46.933333s46.933333-21.333333 46.933333-46.933333-21.333333-46.933333-46.933333-46.933333c-1.422222 0-4.266667 0-8.533333 1.422222h-2.844445z m-291.555555 7.111111c0 69.688889 49.777778 126.577778 115.2 137.955556v-4.266667c0-96.711111 73.955556-177.777778 169.244444-186.311111 5.688889-1.422222 11.377778-1.422222 18.488889-1.422222 51.2 0 92.444444 42.666667 92.444445 92.444444 0 5.688889-1.422222 11.377778-1.422223 15.644444 31.288889-24.177778 52.622222-64 52.622223-109.511111 0-76.8-62.577778-140.8-140.8-140.8-51.2 0-95.288889 27.022222-120.888889 69.688889-14.222222-7.111111-31.288889-11.377778-46.933334-11.377778v-1.422222h-1.422222c-73.955556-1.422222-136.533333 62.577778-136.533333 139.377778zM258.844444 106.66666699999996c-11.377778 0-21.333333-4.266667-28.444444-11.377778-7.111111-8.533333-11.377778-18.488889-11.377778-29.866667s4.266667-21.333333 11.377778-28.444444c7.111111-8.533333 15.644444-11.377778 27.022222-11.377778 11.377778 0 21.333333 4.266667 27.022222 11.377778 7.111111 8.533333 11.377778 18.488889 11.377778 29.866666s-2.844444 21.333333-9.955555 28.444445c-5.688889 8.533333-14.222222 11.377778-27.022223 11.377778z m15.644445-58.311111c-4.266667-4.266667-8.533333-7.111111-14.222222-7.111112s-11.377778 2.844444-14.222223 7.111112c-4.266667 4.266667-5.688889 11.377778-5.688888 18.488888s1.422222 14.222222 5.688888 18.488889c4.266667 4.266667 8.533333 7.111111 15.644445 7.111111 5.688889 0 11.377778-2.844444 14.222222-7.111111 4.266667-4.266667 4.266667-11.377778 4.266667-18.488889-1.422222-8.533333-2.844444-14.222222-5.688889-18.488888zM338.488889 105.24444400000004h-27.022222V28.444443999999976h17.066666v27.022223h8.533334c8.533333 0 15.644444 1.422222 21.333333 7.111111 5.688889 4.266667 8.533333 11.377778 8.533333 18.488889 1.422222 17.066667-8.533333 24.177778-28.444444 24.177777z m-2.844445-36.977777h-7.111111v24.177777h8.533334c9.955556 0 14.222222-4.266667 14.222222-12.8-1.422222-7.111111-5.688889-11.377778-15.644445-11.377777zM374.044444 92.44444399999998h22.755556V28.444443999999976H412.444444v64h22.755556v12.8h-61.155556zM445.155556 82.48888899999997h15.644444v-55.466667h-15.644444zM453.688889 109.51111100000003c-2.844444 0-4.266667-1.422222-7.111111-1.422222-1.422222-1.422222-2.844444-4.266667-2.844445-5.688889s1.422222-4.266667 2.844445-5.688889c1.422222-1.422222 4.266667-2.844444 7.111111-2.844444s4.266667 1.422222 7.111111 2.844444c1.422222 1.422222 2.844444 4.266667 2.844444 5.688889 0 2.844444-1.422222 4.266667-2.844444 5.688889-1.422222 0-4.266667 1.422222-7.111111 1.422222zM507.733333 72.53333299999997c-7.111111 2.844444-11.377778 4.266667-12.8 7.111111s-2.844444 4.266667-2.844444 5.688889c0 2.844444 1.422222 4.266667 4.266667 5.688889 1.422222 1.422222 5.688889 1.422222 9.955555 1.422222 7.111111 0 12.8-1.422222 18.488889-4.266666v15.644444c-4.266667 1.422222-11.377778 2.844444-18.488889 2.844445-8.533333 0-17.066667-1.422222-21.333333-5.688889-5.688889-4.266667-8.533333-9.955556-8.533334-17.066667 0-9.955556 5.688889-18.488889 18.488889-22.755555 8.533333-2.844444 12.8-5.688889 14.222223-8.533334 1.422222-1.422222 2.844444-4.266667 2.844444-5.688889 0-2.844444-1.422222-4.266667-2.844444-5.688889s-5.688889-1.422222-9.955556-1.422222c-8.533333 0-14.222222 2.844444-21.333333 8.533334v-17.066667c4.266667-2.844444 11.377778-2.844444 19.911111-2.844445 9.955556 0 18.488889 1.422222 22.755555 5.688889s8.533333 9.955556 8.533334 17.066667c0 4.266667-1.422222 8.533333-4.266667 12.8-2.844444 2.844444-8.533333 5.688889-17.066667 8.533333zM547.555556 76.79999999999995c-5.688889-5.688889-8.533333-12.8-8.533334-22.755556 0-8.533333 2.844444-14.222222 8.533334-19.911111s11.377778-8.533333 21.333333-8.533333c7.111111 0 12.8 1.422222 17.066667 2.844444v14.222223c-4.266667-2.844444-8.533333-4.266667-12.8-4.266667s-8.533333 1.422222-11.377778 4.266667c-2.844444 2.844444-4.266667 7.111111-4.266667 11.377777 0 4.266667 1.422222 8.533333 4.266667 12.8 2.844444 4.266667 7.111111 4.266667 11.377778 4.266667 4.266667 0 8.533333-1.422222 11.377777-4.266667v14.222223c-2.844444 1.422222-8.533333 2.844444-14.222222 2.844444-9.955556 1.422222-18.488889-1.422222-22.755555-7.111111zM624.355556 85.33333300000004c-8.533333 0-17.066667-2.844444-21.333334-8.533333-5.688889-4.266667-8.533333-12.8-8.533333-21.333333s2.844444-15.644444 8.533333-21.333334 12.8-8.533333 21.333334-8.533333 17.066667 2.844444 21.333333 8.533333c5.688889 4.266667 8.533333 12.8 8.533333 21.333334s-2.844444 15.644444-8.533333 21.333333c-5.688889 5.688889-12.8 8.533333-21.333333 8.533333z m-1.422223-45.511111c-8.533333 0-14.222222 5.688889-14.222222 17.066667 0 4.266667 1.422222 8.533333 4.266667 12.8 2.844444 2.844444 5.688889 4.266667 9.955555 4.266667 8.533333 0 12.8-5.688889 12.8-15.644445 1.422222-14.222222-2.844444-18.488889-12.8-18.488889zM702.577778 51.200000000000045c0-4.266667-1.422222-7.111111-2.844445-8.533333-1.422222-1.422222-4.266667-2.844444-8.533333-2.844445-7.111111 0-9.955556 4.266667-9.955556 12.8v31.288889h-15.644444v-34.133333c0-15.644444 7.111111-24.177778 19.911111-24.177778 7.111111 0 12.8 2.844444 17.066667 9.955556v-7.111112h17.066666v55.466667h-15.644444l-1.422222-32.711111zM755.2 100.97777799999994l-15.644444-5.688889v-11.377778h-8.533334v-12.8h8.533334v-25.6c0-12.8 5.688889-18.488889 18.488888-18.488889 4.266667 0 8.533333 1.422222 11.377778 1.422222v11.377778c-1.422222-1.422222-4.266667-1.422222-5.688889-1.422222-4.266667 0-7.111111 2.844444-7.111111 8.533333V71.11111100000005h11.377778v11.377778h-12.8v18.488889zM829.155556 136.53333299999997c-21.333333 0-38.4-18.488889-38.4-38.4 0-21.333333 18.488889-38.4 38.4-38.4s38.4 18.488889 38.4 38.4c0 21.333333-18.488889 38.4-38.4 38.4z m0-71.111111c-18.488889 0-32.711111 14.222222-32.711112 32.711111 0 18.488889 14.222222 32.711111 32.711112 32.711111 18.488889 0 32.711111-14.222222 32.711111-32.711111 0-18.488889-15.644444-32.711111-32.711111-32.711111zM836.266667 95.28888900000004c-1.422222 1.422222-1.422222 1.422222-2.844445 1.422222 7.111111 1.422222 9.955556 5.688889 9.955556 11.377778 0 4.266667-1.422222 7.111111-4.266667 8.533333s-5.688889 2.844444-9.955555 2.844445h-14.222223v-44.088889h5.688889v18.488889h4.266667c1.422222 0 2.844444-1.422222 4.266667-1.422223l4.266666-4.266666 8.533334-12.8h7.111111l-8.533334 12.8c-2.844444 4.266667-4.266667 5.688889-4.266666 7.111111z m-8.533334 4.266667h-7.111111v15.644444h7.111111c2.844444 0 4.266667-1.422222 7.111111-1.422222 1.422222-1.422222 1.422222-2.844444 1.422223-5.688889s-1.422222-4.266667-2.844445-5.688889c-1.422222-1.422222-2.844444-2.844444-5.688889-2.844444z"  horiz-adv-x="1024" />

    
    <glyph glyph-name="airCompressor" unicode="&#58895;" d="M64 407.466667c8.533333-4.266667 32-40.533333 32-108.8S72.533333 194.133333 64 189.866667c-8.533333 4.266667-32 40.533333-32 108.8s23.466667 104.533333 32 108.8m0 32c-34.133333 0-64-61.866667-64-140.8s27.733333-140.8 64-140.8 64 61.866667 64 140.8-29.866667 140.8-64 140.8zM951.466667 407.466667c10.666667 0 40.533333-38.4 40.533333-108.8s-27.733333-108.8-40.533333-108.8-40.533333 38.4-40.533334 108.8 29.866667 108.8 40.533334 108.8m0 32c-40.533333 0-72.533333-61.866667-72.533334-140.8s32-140.8 72.533334-140.8 72.533333 64 72.533333 140.8-32 140.8-72.533333 140.8zM298.666667 128c25.6 0 49.066667-21.333333 49.066666-49.066667s-21.333333-49.066667-49.066666-49.066666-49.066667 21.333333-49.066667 49.066666S273.066667 128 298.666667 128m0 32c-44.8 0-81.066667-36.266667-81.066667-81.066667 0-44.8 36.266667-81.066667 81.066667-81.066666 44.8 0 81.066667 36.266667 81.066666 81.066666 0 44.8-36.266667 81.066667-81.066666 81.066667zM298.666667 93.866667c8.533333 0 12.8-6.4 12.8-12.8s-6.4-12.8-12.8-12.8-12.8 6.4-12.8 12.8 6.4 12.8 12.8 12.8m0 21.333333c-19.2 0-34.133333-14.933333-34.133334-34.133333 0-19.2 14.933333-34.133333 34.133334-34.133334s34.133333 14.933333 34.133333 34.133334c2.133333 17.066667-12.8 34.133333-34.133333 34.133333zM266.666667 539.733333c17.066667 0 32-14.933333 32-32s-14.933333-32-32-32S234.666667 490.666667 234.666667 507.733333c0 19.2 12.8 32 32 32m0 21.333334c-29.866667 0-53.333333-23.466667-53.333334-53.333334s23.466667-53.333333 53.333334-53.333333 53.333333 23.466667 53.333333 53.333333c-2.133333 29.866667-25.6 53.333333-53.333333 53.333334zM100.266667 650.666667c21.333333 0 40.533333-17.066667 40.533333-40.533334 0-21.333333-17.066667-40.533333-40.533333-40.533333-21.333333 0-40.533333 17.066667-40.533334 40.533333 0 23.466667 17.066667 40.533333 40.533334 40.533334m0 21.333333c-34.133333 0-61.866667-27.733333-61.866667-61.866667 0-34.133333 27.733333-61.866667 61.866667-61.866666 34.133333 0 61.866667 27.733333 61.866666 61.866666 0 34.133333-27.733333 61.866667-61.866666 61.866667zM258.133333 701.866667c21.333333 0 40.533333-17.066667 40.533334-40.533334 0-21.333333-17.066667-40.533333-40.533334-40.533333-21.333333 0-40.533333 17.066667-40.533333 40.533333 0 23.466667 17.066667 40.533333 40.533333 40.533334m0 21.333333c-34.133333 0-61.866667-27.733333-61.866666-61.866667 0-34.133333 27.733333-61.866667 61.866666-61.866666 34.133333 0 61.866667 27.733333 61.866667 61.866666-2.133333 34.133333-29.866667 61.866667-61.866667 61.866667zM403.2 680.533333c21.333333 0 40.533333-17.066667 40.533333-40.533333 0-21.333333-17.066667-40.533333-40.533333-40.533333-21.333333 0-40.533333 17.066667-40.533333 40.533333 0 23.466667 19.2 40.533333 40.533333 40.533333m0 21.333334c-34.133333 0-61.866667-27.733333-61.866667-61.866667 0-34.133333 27.733333-61.866667 61.866667-61.866667 34.133333 0 61.866667 27.733333 61.866667 61.866667 0 34.133333-27.733333 61.866667-61.866667 61.866667zM704 128c25.6 0 49.066667-21.333333 49.066667-49.066667s-21.333333-49.066667-49.066667-49.066666-49.066667 21.333333-49.066667 49.066666S678.4 128 704 128m0 32c-44.8 0-81.066667-36.266667-81.066667-81.066667 0-44.8 36.266667-81.066667 81.066667-81.066666 44.8 0 81.066667 36.266667 81.066667 81.066666 0 44.8-36.266667 81.066667-81.066667 81.066667zM768 593.066667c32 0 59.733333-25.6 59.733333-59.733334s-25.6-59.733333-59.733333-59.733333-59.733333 25.6-59.733333 59.733333 27.733333 59.733333 59.733333 59.733334m0 21.333333c-44.8 0-81.066667-36.266667-81.066667-81.066667 0-44.8 36.266667-81.066667 81.066667-81.066666 44.8 0 81.066667 36.266667 81.066667 81.066666 0 46.933333-36.266667 81.066667-81.066667 81.066667zM704 93.866667c8.533333 0 12.8-6.4 12.8-12.8s-6.4-12.8-12.8-12.8-12.8 6.4-12.8 12.8 6.4 12.8 12.8 12.8m0 21.333333c-19.2 0-34.133333-14.933333-34.133333-34.133333 0-19.2 14.933333-34.133333 34.133333-34.133334s34.133333 14.933333 34.133333 34.133334c2.133333 17.066667-12.8 34.133333-34.133333 34.133333zM842.666667 454.4v-21.333333h-132.266667v21.333333h132.266667m21.333333 21.333333h-174.933333v-64h174.933333v64zM349.866667 593.066667v-132.266667H147.2v76.8L192 593.066667h157.866667m21.333333 21.333333H181.333333l-57.6-70.4v-106.666667h245.333334v177.066667h2.133333zM96 407.466667h855.466667v32H64v-32zM919.466667 189.866667H64v-32h887.466667v32zM802.133333 610.133333c-134.4 64-407.466667 128-554.666666 128-179.2 0-209.066667-85.333333-209.066667-123.733333 0-70.4 23.466667-140.8 87.466667-174.933333v25.6c-46.933333 32-66.133333 89.6-66.133334 151.466666 0 17.066667 8.533333 102.4 187.733334 102.4 140.8 0 409.6-61.866667 544-125.866666 29.866667-14.933333 34.133333-29.866667 34.133333-55.466667 0-29.866667-21.333333-51.2-46.933333-57.6v-23.466667c34.133333 12.8 66.133333 34.133333 66.133333 81.066667 4.266667 27.733333-2.133333 53.333333-42.666667 72.533333zM315.733333 460.8h377.6v-21.333333H315.733333z"  horiz-adv-x="1024" />

    
    <glyph glyph-name="report1" unicode="&#58896;" d="M827.733333 678.4c12.8 0 21.333333-8.533333 21.333334-21.333333V-42.666667c0-12.8-8.533333-21.333333-21.333334-21.333333H204.8c-12.8 0-21.333333 8.533333-21.333333 21.333333V657.066667c0 12.8 8.533333 21.333333 21.333333 21.333333h622.933333m0 64H204.8c-46.933333 0-85.333333-38.4-85.333333-85.333333V-42.666667c0-46.933333 38.4-85.333333 85.333333-85.333333h625.066667c46.933333 0 85.333333 38.4 85.333333 85.333333V657.066667c-2.133333 46.933333-40.533333 85.333333-87.466667 85.333333zM740.266667 430.933333h-448c-17.066667 0-32 14.933333-32 32s14.933333 32 32 32h448c17.066667 0 32-14.933333 32-32s-14.933333-32-32-32zM740.266667 253.866667h-448c-17.066667 0-32 14.933333-32 32s14.933333 32 32 32h448c17.066667 0 32-14.933333 32-32s-14.933333-32-32-32zM740.266667 74.666667h-448c-17.066667 0-32 14.933333-32 32s14.933333 32 32 32h448c17.066667 0 32-14.933333 32-32s-14.933333-32-32-32zM516.266667 832c59.733333 0 108.8-55.466667 113.066666-123.733333-12.8-6.4-46.933333-17.066667-102.4-17.066667-59.733333 0-104.533333 12.8-123.733333 21.333333 6.4 66.133333 55.466667 119.466667 113.066667 119.466667m0 64c-98.133333 0-177.066667-89.6-177.066667-200.533333 0-44.8 96-68.266667 187.733333-68.266667 85.333333 0 166.4 21.333333 166.4 68.266667 0 110.933333-78.933333 200.533333-177.066666 200.533333z"  horiz-adv-x="1024" />

    
    <glyph glyph-name="alarm1" unicode="&#58897;" d="M119.466667 245.333333h-4.266667c-19.2 6.4-115.2 40.533333-115.2 93.866667 0 36.266667 38.4 64 66.133333 78.933333C38.4 437.333333 0 469.333333 0 505.6c0 53.333333 96 76.8 117.333333 81.066667 8.533333 2.133333 17.066667-4.266667 19.2-12.8 0-10.666667-4.266667-19.2-12.8-19.2-38.4-8.533333-91.733333-29.866667-91.733333-49.066667 0-23.466667 44.8-57.6 74.666667-74.666667 4.266667-2.133333 8.533333-8.533333 8.533333-14.933333 0-6.4-4.266667-10.666667-10.666667-12.8-23.466667-8.533333-72.533333-36.266667-72.533333-61.866667 0-21.333333 55.466667-51.2 93.866667-61.866666 8.533333-2.133333 12.8-10.666667 10.666666-19.2-4.266667-10.666667-10.666667-14.933333-17.066666-14.933334zM904.533333 245.333333c-6.4 0-12.8 4.266667-14.933333 10.666667-2.133333 8.533333 2.133333 17.066667 10.666667 19.2 38.4 12.8 93.866667 40.533333 93.866666 61.866667 0 25.6-49.066667 51.2-72.533333 61.866666-6.4 2.133333-10.666667 8.533333-10.666667 12.8s2.133333 12.8 8.533334 14.933334c32 17.066667 74.666667 53.333333 74.666666 74.666666 0 19.2-53.333333 40.533333-91.733333 49.066667-8.533333 2.133333-14.933333 10.666667-12.8 19.2 2.133333 8.533333 10.666667 14.933333 19.2 12.8 19.2-4.266667 117.333333-27.733333 117.333333-81.066667 0-34.133333-38.4-68.266667-66.133333-87.466666 27.733333-14.933333 66.133333-42.666667 66.133333-78.933334 0-53.333333-96-87.466667-115.2-93.866666-4.266667 4.266667-4.266667 4.266667-6.4 4.266666zM864 166.4l-151.466667 262.4v149.333333c0 108.8-89.6 198.4-198.4 198.4-108.8 0-198.4-89.6-198.4-198.4v-149.333333L160 166.4c-19.2-32-19.2-70.4 0-100.266667 19.2-32 51.2-51.2 87.466667-51.2h526.933333c36.266667 0 68.266667 19.2 87.466667 51.2 19.2 32 19.2 68.266667 2.133333 100.266667z m-51.2-74.666667c-2.133333-4.266667-12.8-17.066667-29.866667-17.066666H241.066667c-17.066667 0-27.733333 12.8-29.866667 17.066666-2.133333 4.266667-8.533333 19.2 0 34.133334l164.266667 285.866666v172.8c0 74.666667 59.733333 134.4 134.4 134.4s134.4-59.733333 134.4-134.4v-172.8l164.266666-285.866666c12.8-14.933333 6.4-27.733333 4.266667-34.133334zM499.2 27.733333c46.933333 0 72.533333-6.4 83.2-10.666666-12.8-8.533333-40.533333-21.333333-83.2-21.333334s-72.533333 12.8-83.2 21.333334c10.666667 4.266667 36.266667 10.666667 83.2 10.666666m0 44.8c-74.666667 0-134.4-14.933333-134.4-53.333333s59.733333-70.4 134.4-70.4 134.4 32 134.4 70.4c0 38.4-59.733333 53.333333-134.4 53.333333zM512 772.266667c8.533333 0 14.933333-2.133333 19.2-4.266667H512c-8.533333 0-14.933333 0-19.2 2.133333 4.266667 2.133333 10.666667 2.133333 19.2 2.133334m0 46.933333c-42.666667 0-74.666667-23.466667-74.666667-53.333333s34.133333-42.666667 74.666667-42.666667 74.666667 12.8 74.666667 42.666667S554.666667 819.2 512 819.2z"  horiz-adv-x="1026" />

    
    <glyph glyph-name="camera" unicode="&#58898;" d="M512 650.666667c-121.6 0-221.866667-100.266667-221.866667-221.866667S390.4 206.933333 512 206.933333s221.866667 100.266667 221.866667 221.866667S633.6 650.666667 512 650.666667z m-70.4-219.733334c-36.266667 0-66.133333 29.866667-66.133333 66.133334 0 36.266667 29.866667 66.133333 66.133333 66.133333 36.266667 0 66.133333-29.866667 66.133333-66.133333 2.133333-38.4-29.866667-66.133333-66.133333-66.133334zM512 14.933333C268.8 14.933333 70.4 213.333333 70.4 454.4c0 70.4 14.933333 136.533333 44.8 198.4 6.4 14.933333 23.466667 21.333333 40.533333 12.8 14.933333-8.533333 21.333333-23.466667 12.8-40.533333-27.733333-51.2-40.533333-108.8-40.533333-170.666667 0-209.066667 170.666667-379.733333 379.733333-379.733333s381.866667 170.666667 381.866667 379.733333-170.666667 379.733333-379.733333 379.733333c-87.466667 0-172.8-29.866667-241.066667-85.333333-12.8-12.8-34.133333-8.533333-42.666667 2.133333-12.8 12.8-8.533333 34.133333 2.133334 42.666667C311.466667 859.733333 411.733333 896 512 896c243.2 0 441.6-198.4 441.6-441.6 0-241.066667-198.4-439.466667-441.6-439.466667z m0 0M471.466667 744.533333c0-14.933333 8.533333-27.733333 19.2-34.133333 12.8-6.4 27.733333-6.4 40.533333 0 12.8 6.4 19.2 19.2 19.2 34.133333 0 21.333333-17.066667 40.533333-40.533333 40.533334-19.2-2.133333-38.4-19.2-38.4-40.533334z m0 0M797.866667-68.266667h-134.4v123.733334c0 19.2-12.8 29.866667-29.866667 29.866666-19.2 0-29.866667-12.8-29.866667-29.866666v-123.733334h-181.333333v42.666667c0 19.2-12.8 29.866667-29.866667 29.866667-19.2 0-29.866667-12.8-29.866666-29.866667v-42.666667h-130.133334c-19.2 0-29.866667-12.8-29.866666-29.866666 0-19.2 12.8-29.866667 29.866666-29.866667H800c14.933333 0 29.866667 12.8 29.866667 29.866667-2.133333 19.2-14.933333 29.866667-32 29.866666z"  horiz-adv-x="1024" />

    
    <glyph glyph-name="multivariate" unicode="&#58899;" d="M89.6 98.133333C29.866667 166.39999999999998 0 243.20000000000005 0 332.79999999999995c0 91.733333 29.866667 170.666667 91.733333 234.666667h66.133334c-59.733333-70.4-87.466667-149.333333-87.466667-234.666667s29.866667-164.266667 87.466667-234.666667H89.6zM759.466667 117.33333300000004h-198.4l-49.066667 85.333334-49.066667-85.333334h-198.4L416 341.33333300000004 277.333333 548.266667h198.4l42.666667-74.666667 42.666667 74.666667h200.533333l-149.333333-209.066667 147.2-221.866667z m-172.8 44.8h87.466666L556.8 341.33333300000004l115.2 162.133334h-85.333333l-70.4-121.6-68.266667 121.6h-85.333333l108.8-162.133334-121.6-179.2h87.466666l76.8 132.266667 72.533334-132.266667zM932.266667 98.133333h-66.133334c59.733333 70.4 87.466667 147.2 87.466667 234.666667 0 85.333333-29.866667 164.266667-87.466667 234.666667h66.133334c59.733333-66.133333 89.6-145.066667 89.6-234.666667 2.133333-91.733333-27.733333-170.666667-89.6-234.666667z"  horiz-adv-x="1024" />

    
    <glyph glyph-name="timing" unicode="&#58900;" d="M512 716.8c217.6 0 394.666667-177.066667 394.666667-394.666667S729.6-72.53333299999997 512-72.53333299999997 117.333333 102.39999999999998 117.333333 320C117.333333 539.733333 294.4 716.8 512 716.8m0 53.333333c-247.466667 0-448-200.533333-448-448s200.533333-448 448-448 448 200.533333 448 448-200.533333 448-448 448zM375.466667 846.933333a136.533333 49.06666699999999 0 1 1 273.066666 0 136.533333 49.06666699999999 0 1 1-273.066666 0ZM72.806658 620.6290730000001a85.333333 38.4 42.447 1 1 125.935267 115.184284 85.333333 38.4 42.447 1 1-125.935267-115.184284ZM860.819074 649.591397a38.400000000000006 85.333333 47.554 1 1 51.831939 56.671775 38.400000000000006 85.333333 47.554 1 1-51.831939-56.671775ZM516.266667 290.133333h-53.333334v234.666667c0 14.933333 12.8 27.733333 25.6 27.733333 14.933333 0 27.733333-12.8 27.733334-27.733333v-234.666667zM462.933333 264.53333299999997v53.333334h189.866667c14.933333 0 25.6-12.8 25.6-25.6 0-14.933333-12.8-27.733333-25.6-27.733334h-189.866667z"  horiz-adv-x="1024" />

    
    <glyph glyph-name="hang" unicode="&#58901;" d="M851.2 529.066667h-187.733333c-17.066667 0-32 14.933333-32 32s14.933333 32 32 32h187.733333c17.066667 0 32-14.933333 32-32s-14.933333-32-32-32zM970.666667 330.66666699999996V234.66666699999996c0-23.466667-19.2-42.666667-42.666667-42.666667H98.133333c-23.466667 0-42.666667 19.2-42.666666 42.666667V620.8c0 23.466667 19.2 42.666667 42.666666 42.666667h829.866667c23.466667 0 42.666667-19.2 42.666667-42.666667v-179.2c0-14.933333 12.8-25.6 27.733333-25.6 14.933333 0 27.733333 12.8 27.733333 25.6v189.866667c0 46.933333-38.4 85.333333-85.333333 85.333333h-853.333333c-46.933333 0-85.333333-38.4-85.333334-85.333333v-407.466667c0-46.933333 38.4-85.333333 85.333334-85.333333H938.666667c46.933333 0 85.333333 38.4 85.333333 85.333333v106.666667h-53.333333zM1024 277.33333300000004H168.533333c-14.933333 0-25.6 12.8-25.6 25.6 0 14.933333 12.8 27.733333 25.6 27.733334H1024V277.33333300000004z"  horiz-adv-x="1026" />

    
    <glyph glyph-name="lighting" unicode="&#58902;" d="M514.133333 665.6C253.866667 665.6 42.666667 454.4 42.666667 194.133333v-2.133333c0-34.133333 29.866667-59.733333 64-59.733333h814.933333c34.133333 0 64 23.466667 64 59.733333v2.133333c0 260.266667-211.2 471.466667-471.466667 471.466667zM106.666667 183.46666700000003c-10.666667 0-19.2 8.533333-19.2 19.2 10.666667 226.133333 196.266667 407.466667 424.533333 407.466666s416-181.333333 426.666667-407.466666c0-10.666667-8.533333-19.2-19.2-19.2H106.666667zM514.133333 620.8c-14.933333 0-25.6 12.8-25.6 32V864c0 17.066667 10.666667 32 25.6 32s27.733333-12.8 27.733334-32v-211.2c-2.133333-17.066667-12.8-32-27.733334-32zM324.266667 68.26666699999998l-36.266667-10.666667c-10.666667-2.133333-17.066667-12.8-12.8-23.466667 2.133333-10.666667 12.8-17.066667 23.466667-12.8l36.266666 10.666667c10.666667 2.133333 17.066667 12.8 12.8 23.466667-4.266667 10.666667-14.933333 17.066667-23.466666 12.8zM371.2-42.66666699999996l-27.733333-27.733333c-8.533333-8.533333-8.533333-19.2 0-27.733333s19.2-8.533333 27.733333 0l27.733333 27.733333c8.533333 8.533333 8.533333 19.2 0 27.733333-8.533333 6.4-21.333333 6.4-27.733333 0zM740.266667 53.33333300000004l-38.4 10.666667c-10.666667 2.133333-21.333333-2.133333-23.466667-12.8-2.133333-10.666667 4.266667-21.333333 12.8-23.466667l38.4-10.666666c10.666667-2.133333 21.333333 2.133333 23.466667 12.8 4.266667 10.666667-2.133333 21.333333-12.8 23.466666zM648.533333-42.66666699999996c-8.533333 8.533333-21.333333 8.533333-27.733333 0-8.533333-8.533333-8.533333-19.2 0-27.733333l27.733333-27.733333c8.533333-8.533333 21.333333-8.533333 27.733334 0 8.533333 8.533333 8.533333 19.2 0 27.733333L648.533333-42.66666699999996zM512-51.200000000000045c-10.666667 0-19.2-8.533333-19.2-19.2v-38.4c0-10.666667 8.533333-19.2 19.2-19.2s19.2 8.533333 19.2 19.2v38.4c0 10.666667-8.533333 19.2-19.2 19.2zM635.733333 132.26666699999998c-2.133333-70.4-53.333333-119.466667-123.733333-119.466667s-123.733333 49.066667-123.733333 119.466667h-40.533334c2.133333-89.6 74.666667-162.133333 164.266667-162.133334s162.133333 72.533333 164.266667 162.133334h-40.533334z"  horiz-adv-x="1024" />

    
    <glyph glyph-name="out" unicode="&#58903;" d="M864 725.333333v-789.333333H162.133333V725.333333h701.866667m0 64H162.133333c-36.266667 0-64-27.733333-64-64v-789.333333c0-36.266667 27.733333-64 64-64h701.866667c36.266667 0 64 27.733333 64 64V725.333333c0 36.266667-27.733333 64-64 64zM669.866667 842.666667c6.4 0 10.666667-4.266667 10.666666-10.666667v-42.666667H343.466667V832c0 6.4 4.266667 10.666667 10.666666 10.666667h315.733334m0 53.333333H354.133333c-36.266667 0-64-27.733333-64-64v-96h443.733334V832c0 36.266667-27.733333 64-64 64zM744.533333 599.4666669999999v-418.133334H279.466667V599.4666669999999h465.066666m10.666667 53.333333H268.8c-23.466667 0-42.666667-19.2-42.666667-42.666667V170.66666699999996c0-23.466667 19.2-42.666667 42.666667-42.666667h486.4c23.466667 0 42.666667 19.2 42.666667 42.666667V610.133333c0 23.466667-19.2 42.666667-42.666667 42.666667zM268.8 552.5333330000001h486.4V490.666667H268.8zM268.8 426.666667h486.4v-61.866667H268.8zM266.666667 298.66666699999996h486.4v-61.866667H266.666667zM499.2 29.866667000000007m-42.666667 0a42.666667 42.666667 0 1 1 85.333334 0 42.666667 42.666667 0 1 1-85.333334 0ZM629.333333 29.866667000000007m-42.666666 0a42.666667 42.666667 0 1 1 85.333333 0 42.666667 42.666667 0 1 1-85.333333 0ZM755.2 29.866667000000007m-42.666667 0a42.666667 42.666667 0 1 1 85.333334 0 42.666667 42.666667 0 1 1-85.333334 0Z"  horiz-adv-x="1024" />

    
    <glyph glyph-name="outdoor" unicode="&#58904;" d="M793.6 569.6v-486.4H53.333333V569.6h740.266667m53.333333 53.333333H0v-593.066666h846.933333V622.933333zM151.466667 740.266667L0 622.933333h89.6l89.6 70.4H1024V740.266667zM983.466667 740.266667H1024v-552.533334h-40.533333zM846.933333 27.733333000000016l-27.733333 38.4 177.066667 155.733334 27.733333-36.266667zM840.533333 569.6l-25.6 40.533333 172.8 121.6 23.466667-38.4zM763.178667 727.189333L789.333333 693.461333l-140.010666-108.394666-26.133334 33.706666zM556.16 729.2586670000001l26.112-33.728-140.010667-108.394667-26.112 33.728zM352.810667 729.514667l26.133333-33.728-145.066667-112.32-26.133333 33.749333z"  horiz-adv-x="1024" />

    
    <glyph glyph-name="add" unicode="&#58905;" d="M512-128c-17.066667 0-32 14.933333-32 32v960c0 17.066667 14.933333 32 32 32s32-14.933333 32-32v-960c0-17.066667-14.933333-32-32-32zM0 384c0 17.066667 14.933333 32 32 32h960c17.066667 0 32-14.933333 32-32s-14.933333-32-32-32h-960C14.933333 352 0 366.93333299999995 0 384z"  horiz-adv-x="1024" />

    
    <glyph glyph-name="minus" unicode="&#58906;" d="M0 384c0 17.066667 14.933333 32 32 32h960c17.066667 0 32-14.933333 32-32s-14.933333-32-32-32h-960C14.933333 352 0 366.93333299999995 0 384z"  horiz-adv-x="1024" />

    


  </font>
</defs>
</svg>
